<svg width="16" height="16" viewBox="0 0 16 16" fill="none" xmlns="http://www.w3.org/2000/svg">
<path d="M10.5456 2.32793C11.3116 3.0946 10.691 4.95793 9.15829 6.49127C7.62562 8.02393 5.76162 8.64527 4.99496 7.8786M10.5456 2.32793C9.77895 1.56127 7.91562 2.18327 6.38296 3.71593C4.84962 5.2486 4.22896 7.1126 4.99496 7.8786M10.5456 2.32793C10.7865 2.56883 10.9958 2.83945 11.1683 3.13325C12.7196 5.71859 13.6183 7.25126 13.8663 7.72992C14.2383 8.44859 13.8163 9.23325 12.8583 10.1913C11.9003 11.1493 11.1156 11.5706 10.397 11.1993L5.80029 8.50125C5.50695 8.32925 5.23629 8.11993 4.99496 7.8786M3.33342 10.6666L4.31009 11.7586C4.48437 11.946 4.60105 12.1795 4.64622 12.4314C4.69139 12.6833 4.66313 12.9428 4.56481 13.179C4.4665 13.4153 4.30228 13.6182 4.09177 13.7637C3.88125 13.9092 3.63332 13.991 3.37758 13.9994C3.12184 14.0078 2.86908 13.9424 2.64947 13.8111C2.42987 13.6797 2.25269 13.488 2.13909 13.2587C2.02549 13.0294 1.98027 12.7723 2.00881 12.518C2.03736 12.2637 2.13847 12.023 2.30009 11.8246L3.33342 10.6666Z" stroke="#101828" stroke-linecap="round" stroke-linejoin="round"/>
</svg>
