<svg width="16" height="16" viewBox="0 0 16 16" fill="none" xmlns="http://www.w3.org/2000/svg">
<path d="M5.4668 8.8C6.14526 7.00333 7.29622 5.42316 8.79817 4.22629C10.3001 3.02943 12.0973 2.26027 14.0001 2C13.7399 3.90279 12.9704 5.70001 11.7736 7.20196C10.5767 8.70391 8.99654 9.85487 7.19987 10.5333M7.06673 6C8.36218 6.59791 9.40215 7.63789 10.0001 8.93333M2 14V11.3333C2 10.8059 2.1564 10.2903 2.44941 9.85181C2.74243 9.41328 3.15891 9.07149 3.64618 8.86966C4.13345 8.66782 4.66962 8.61501 5.18691 8.71791C5.70419 8.8208 6.17934 9.07478 6.55229 9.44772C6.92523 9.82066 7.1792 10.2958 7.28209 10.8131C7.38499 11.3304 7.33218 11.8666 7.13035 12.3538C6.92851 12.8411 6.58672 13.2576 6.14819 13.5506C5.70966 13.8436 5.19408 14 4.66667 14H2Z" stroke="#101828" stroke-linecap="round" stroke-linejoin="round"/>
</svg>
